<svg xmlns="http://www.w3.org/2000/svg" version="1.1" xmlns:xlink="http://www.w3.org/1999/xlink" xmlns:svgjs="http://svgjs.dev/svgjs" width="2000" height="1999" viewBox="0 0 2000 1999"><g transform="matrix(1,0,0,1,-0.431486880466764,-0.4312711370263287)"><svg viewBox="0 0 343 343" data-background-color="#ffffff" preserveAspectRatio="xMidYMid meet" height="1999" width="2000" xmlns="http://www.w3.org/2000/svg" xmlns:xlink="http://www.w3.org/1999/xlink"><g id="tight-bounds" transform="matrix(1,0,0,1,0.0740000000000407,0.07400000000001228)"><svg viewBox="0 0 342.85155851775386 342.85155851775386" height="342.85155851775386" width="342.85155851775386"><g><svg></svg></g><g><svg viewBox="0 0 342.85155851775386 342.85155851775386" height="342.85155851775386" width="342.85155851775386"><g><path d="M0 171.426c0-94.676 76.75-171.426 171.426-171.426 94.676 0 171.426 76.75 171.426 171.426 0 94.676-76.75 171.426-171.426 171.426-94.676 0-171.426-76.75-171.426-171.426zM171.426 339.572c92.865 0 168.146-75.282 168.146-168.146 0-92.865-75.282-168.146-168.146-168.146-92.865 0-168.146 75.282-168.146 168.146 0 92.865 75.282 168.146 168.146 168.146z" data-fill-palette-color="tertiary" fill="#ffffff" stroke="transparent"></path><ellipse rx="164.56874808852186" ry="164.56874808852186" cx="171.42577925887693" cy="171.42577925887693" fill="#ffffff" stroke="transparent" stroke-width="0" fill-opacity="1" data-fill-palette-color="tertiary"></ellipse></g><g transform="matrix(1,0,0,1,64.84655864529837,96.68955562795425)"><svg viewBox="0 0 213.1584412271571 149.47244726184536" height="149.47244726184536" width="213.1584412271571"><g><svg viewBox="0 0 213.1584412271571 149.47244726184536" height="149.47244726184536" width="213.1584412271571"><g><svg viewBox="0 0 213.1584412271571 149.47244726184536" height="149.47244726184536" width="213.1584412271571"><g transform="matrix(1,0,0,1,0,90.32594480087671)"><svg viewBox="0 0 213.1584412271571 59.14650246096864" height="59.14650246096864" width="213.1584412271571"><g id="textblocktransform"><svg viewBox="0 0 213.1584412271571 59.14650246096864" height="59.14650246096864" width="213.1584412271571" id="textblock"><g><svg viewBox="0 0 213.1584412271571 36.36743421532915" height="36.36743421532915" width="213.1584412271571"><g transform="matrix(1,0,0,1,0,0)"><svg width="213.1584412271571" viewBox="3.91 -35.86 213.766301367223 36.47" height="36.36743421532915" data-palette-color="#ffffff"><path d="M11.35-25.29L11.35-1.29Q11.35-0.56 11.07-0.28 10.79 0 10.08 0L10.08 0 5.18 0Q4.49 0 4.2-0.28 3.91-0.56 3.91-1.29L3.91-1.29 3.91-32.23Q3.91-33.67 4.47-34.34 5.03-35.01 6.45-35.01L6.45-35.01 8.72-35.01Q9.96-35.01 11.07-34.68 12.18-34.35 13.44-33.2 14.7-32.06 16.37-29.65 18.04-27.25 20.41-23.1L20.41-23.1Q22.68-19.14 24.06-16.77 25.44-14.4 26.2-13.16 26.95-11.91 27.33-11.38 27.71-10.84 27.95-10.5L27.95-10.5 27.95-31.1Q27.95-31.81 28.17-32.18L28.17-32.18Q29.22-33.79 31.08-35.57L31.08-35.57Q31.45-35.86 31.69-35.86L31.69-35.86Q31.96-35.86 32.28-35.57L32.28-35.57Q33.28-34.64 33.97-33.8 34.67-32.96 35.18-32.18L35.18-32.18Q35.4-31.79 35.4-31.1L35.4-31.1 35.4-2.03Q35.4-0.93 34.99-0.46 34.57 0 33.47 0L33.47 0 31.13 0Q30.08 0 28.98-0.35 27.88-0.71 26.49-1.97 25.1-3.22 23.19-5.88 21.29-8.54 18.6-13.16L18.6-13.16Q16.33-17.09 14.98-19.41 13.62-21.73 12.92-22.91 12.21-24.1 11.89-24.57 11.57-25.05 11.35-25.29L11.35-25.29ZM54.86 0.61L54.86 0.61Q50.73 0.61 47.68-0.72 44.63-2.05 42.94-4.86 41.26-7.67 41.26-12.11L41.26-12.11Q41.26-18.77 44.68-22.19 48.09-25.61 53.76-25.61L53.76-25.61Q57.44-25.61 60-24.29 62.55-22.97 63.88-20.65 65.21-18.33 65.21-15.36L65.21-15.36Q65.21-12.45 63.72-11.3 62.23-10.16 59.37-10.16L59.37-10.16 48.9-10.16Q49.09-7.64 50.74-6.32 52.39-5 55.22-5L55.22-5Q57.47-5 58.82-5.68 60.18-6.35 60.72-6.74L60.72-6.74Q61.18-7.08 61.77-7.06L61.77-7.06Q62.23-7.06 63.1-6.87 63.96-6.69 64.82-6.2L64.82-6.2Q65.43-5.88 65.43-5.32L65.43-5.32Q65.43-5 65.31-4.42L65.31-4.42Q65.23-4.08 65.06-3.43 64.89-2.78 64.62-2.22L64.62-2.22Q64.48-1.95 64.16-1.71L64.16-1.71Q63.67-1.37 62.58-0.81 61.5-0.24 59.62 0.18 57.74 0.61 54.86 0.61ZM48.85-15.16L48.85-15.16 56.81-15.16Q58.05-15.16 58.05-16.31L58.05-16.31Q58.05-18.04 56.97-19.23 55.88-20.41 53.71-20.41L53.71-20.41Q51.34-20.41 50.23-18.9 49.12-17.38 48.85-15.16ZM81.12-8.47L81.12-8.47Q78.54-6.98 77.53-5.22 76.53-3.47 76.53-0.9L76.53-0.9Q76.53-0.39 76.39-0.2 76.24 0 75.75 0L75.75 0 70.06 0Q68.99 0 68.99-1.39L68.99-1.39Q68.99-4.71 70.34-7.32 71.7-9.94 75.12-11.99L75.12-11.99Q72.53-13.43 71.05-15.89 69.58-18.36 69.58-21.12L69.58-21.12 69.58-21.51Q69.58-22.09 69.82-22.41L69.82-22.41Q70.84-23.75 72.82-25.32L72.82-25.32Q73.16-25.56 73.43-25.56L73.43-25.56Q73.75-25.56 74.04-25.32L74.04-25.32Q75.09-24.51 75.81-23.8 76.53-23.1 77.05-22.41L77.05-22.41Q77.29-22.09 77.29-21.51L77.29-21.51 77.29-21.12Q77.29-17.63 81.34-15.72L81.34-15.72Q83.2-16.75 83.97-18.09 84.74-19.43 84.74-21.12L84.74-21.12 84.74-21.51Q84.74-22.09 84.98-22.41L84.98-22.41Q85.96-23.75 87.91-25.32L87.91-25.32Q88.23-25.56 88.5-25.56L88.5-25.56Q88.81-25.56 89.08-25.32L89.08-25.32Q90.11-24.51 90.82-23.8 91.52-23.1 92.01-22.41L92.01-22.41Q92.26-22.09 92.26-21.51L92.26-21.51 92.26-21.12Q92.26-18.09 90.91-15.89 89.57-13.7 87.4-12.26L87.4-12.26Q90.42-10.55 91.82-7.75 93.21-4.96 93.21-1.39L93.21-1.39Q93.21-0.56 93.01-0.28 92.82 0 92.16 0L92.16 0 86.35 0Q85.49 0 85.49-1.17L85.49-1.17Q85.49-2.76 85.19-4 84.88-5.25 83.95-6.34 83.03-7.42 81.12-8.47ZM108.1 0.61L108.1 0.61Q99.94 0.61 99.94-7.86L99.94-7.86 99.94-19.31 97.18-19.31Q96.45-19.31 96.17-19.62 95.89-19.92 95.89-20.65L95.89-20.65 95.89-23.66Q95.89-24.39 96.17-24.69 96.45-25 97.18-25L97.18-25 99.94-25 99.94-28.93Q99.94-29.52 100.19-29.83L100.19-29.83Q101.21-31.18 103.19-32.74L103.19-32.74Q103.53-32.98 103.8-32.98L103.8-32.98Q104.09-32.98 104.39-32.74L104.39-32.74Q105.44-31.93 106.16-31.23 106.88-30.52 107.39-29.83L107.39-29.83Q107.63-29.52 107.63-28.93L107.63-28.93 107.63-25 111.96-25Q112.69-25 112.97-24.69 113.25-24.39 113.25-23.66L113.25-23.66 113.25-20.65Q113.25-19.92 112.97-19.62 112.69-19.31 111.96-19.31L111.96-19.31 107.63-19.31 107.63-9.2Q107.63-5.3 110.47-5.3L110.47-5.3Q110.91-5.3 111.27-5.38 111.64-5.47 111.91-5.57L111.91-5.57Q112.42-5.76 112.63-5.71 112.83-5.66 113.01-5.18L113.01-5.18 114.42-1.39Q114.64-0.78 114.13-0.51L114.13-0.51Q113.76-0.34 112.36 0.13 110.95 0.61 108.1 0.61ZM132.56 0L125.14 0Q122.62 0 121.32-0.63 120.01-1.27 119.56-2.71 119.11-4.15 119.11-6.54L119.11-6.54 119.11-28.47Q119.11-30.91 119.56-32.34 120.01-33.76 121.32-34.39 122.62-35.01 125.14-35.01L125.14-35.01 131.85-35.01Q137.71-35.01 140.86-32.86 144.01-30.71 144.01-26.81L144.01-26.81Q144.01-24.88 143.13-23.29 142.25-21.7 140.82-20.58 139.39-19.46 137.71-18.9L137.71-18.9 137.71-18.8Q139.86-18.51 141.59-17.4 143.32-16.28 144.36-14.51 145.4-12.74 145.4-10.45L145.4-10.45Q145.4-7.03 143.75-4.7 142.1-2.37 139.21-1.18 136.32 0 132.56 0L132.56 0ZM126.99-26.17L126.99-8.86Q126.99-7.23 127.58-6.52 128.16-5.81 129.78-5.81L129.78-5.81 131.63-5.81Q134.1-5.81 135.6-7.08 137.1-8.35 137.1-10.55L137.1-10.55Q137.1-12.65 135.63-13.84 134.17-15.04 131.85-15.04L131.85-15.04 131.87-15.04Q131.29-15.04 131-15.21L131-15.21Q130.36-15.63 129.69-16.17 129.02-16.72 128.24-17.5L128.24-17.5Q127.99-17.82 127.99-17.97L127.99-17.97Q127.99-18.16 128.24-18.43L128.24-18.43Q129.02-19.21 129.69-19.78 130.36-20.34 131-20.73L131-20.73Q131.34-20.9 131.87-20.9L131.87-20.9 131.85-20.9Q133.29-20.9 134.5-21.97 135.71-23.05 135.71-25.34L135.71-25.34Q135.71-27.66 134.41-28.43 133.12-29.2 131.09-29.2L131.09-29.2 129.78-29.2Q128.16-29.2 127.58-28.52 126.99-27.83 126.99-26.17L126.99-26.17ZM162.9 0.61L162.9 0.61Q158.78 0.61 155.72-0.72 152.67-2.05 150.99-4.86 149.3-7.67 149.3-12.11L149.3-12.11Q149.3-18.77 152.72-22.19 156.14-25.61 161.8-25.61L161.8-25.61Q165.49-25.61 168.04-24.29 170.59-22.97 171.92-20.65 173.25-18.33 173.25-15.36L173.25-15.36Q173.25-12.45 171.76-11.3 170.28-10.16 167.42-10.16L167.42-10.16 156.95-10.16Q157.14-7.64 158.79-6.32 160.44-5 163.27-5L163.27-5Q165.51-5 166.87-5.68 168.22-6.35 168.76-6.74L168.76-6.74Q169.23-7.08 169.81-7.06L169.81-7.06Q170.28-7.06 171.14-6.87 172.01-6.69 172.86-6.2L172.86-6.2Q173.47-5.88 173.47-5.32L173.47-5.32Q173.47-5 173.35-4.42L173.35-4.42Q173.28-4.08 173.11-3.43 172.94-2.78 172.67-2.22L172.67-2.22Q172.52-1.95 172.2-1.71L172.2-1.71Q171.72-1.37 170.63-0.81 169.54-0.24 167.66 0.18 165.78 0.61 162.9 0.61ZM156.9-15.16L156.9-15.16 164.86-15.16Q166.1-15.16 166.1-16.31L166.1-16.31Q166.1-18.04 165.01-19.23 163.93-20.41 161.76-20.41L161.76-20.41Q159.39-20.41 158.28-18.9 157.17-17.38 156.9-15.16ZM185.58 0.61L185.58 0.61Q182.97 0.61 181.25 0.17 179.53-0.27 178.49-0.89 177.45-1.51 176.86-2.03L176.86-2.03Q176.43-2.44 176.77-2.95L176.77-2.95 179.26-6.64Q179.79-7.42 180.48-6.74L180.48-6.74Q181.19-6.05 182.39-5.41 183.6-4.76 185.41-4.76L185.41-4.76Q187.02-4.76 188.06-5.31 189.1-5.86 189.1-6.91L189.1-6.91Q189.1-7.64 188.63-8.11 188.17-8.57 187-9.06 185.82-9.55 183.73-10.3L183.73-10.3Q180.62-11.43 179.04-13.01 177.45-14.6 177.45-17.65L177.45-17.65Q177.45-20.46 179-22.22 180.55-23.97 182.98-24.79 185.41-25.61 188.05-25.61L188.05-25.61Q191.39-25.61 192.75-24.99 194.1-24.37 194.49-24.02L194.49-24.02Q194.86-23.71 195-23.29L195-23.29Q195.32-22.34 195.49-20.78L195.49-20.78Q195.59-19.87 195.03-19.58L195.03-19.58Q194.74-19.41 194.1-19.21 193.47-19.02 192.83-18.87 192.2-18.73 191.88-18.73L191.88-18.73Q191.78-18.73 191.67-18.79 191.56-18.85 191.29-19.09L191.29-19.09Q190.98-19.41 190.21-19.82 189.44-20.24 188.1-20.24L188.1-20.24Q186.78-20.24 185.89-19.81 184.99-19.38 184.99-18.31L184.99-18.31Q184.99-17.14 186.13-16.55 187.27-15.97 189.88-15.04L189.88-15.04Q191.93-14.33 193.45-13.49 194.98-12.65 195.81-11.29 196.64-9.94 196.64-7.64L196.64-7.64Q196.64-4.66 195.02-2.84 193.39-1.03 190.87-0.21 188.34 0.61 185.58 0.61ZM211.29 0.61L211.29 0.61Q203.13 0.61 203.13-7.86L203.13-7.86 203.13-19.31 200.37-19.31Q199.64-19.31 199.36-19.62 199.08-19.92 199.08-20.65L199.08-20.65 199.08-23.66Q199.08-24.39 199.36-24.69 199.64-25 200.37-25L200.37-25 203.13-25 203.13-28.93Q203.13-29.52 203.38-29.83L203.38-29.83Q204.4-31.18 206.38-32.74L206.38-32.74Q206.72-32.98 206.99-32.98L206.99-32.98Q207.28-32.98 207.58-32.74L207.58-32.74Q208.63-31.93 209.35-31.23 210.07-30.52 210.58-29.83L210.58-29.83Q210.82-29.52 210.82-28.93L210.82-28.93 210.82-25 215.14-25Q215.88-25 216.16-24.69 216.44-24.39 216.44-23.66L216.44-23.66 216.44-20.65Q216.44-19.92 216.16-19.62 215.88-19.31 215.14-19.31L215.14-19.31 210.82-19.31 210.82-9.2Q210.82-5.3 213.65-5.3L213.65-5.3Q214.09-5.3 214.46-5.38 214.83-5.47 215.09-5.57L215.09-5.57Q215.61-5.76 215.82-5.71 216.02-5.66 216.19-5.18L216.19-5.18 217.61-1.39Q217.83-0.78 217.32-0.51L217.32-0.51Q216.95-0.34 215.55 0.13 214.14 0.61 211.29 0.61Z" opacity="1" transform="matrix(1,0,0,1,0,0)" fill="#000000" class="wordmark-text-0" data-fill-palette-color="quaternary" id="text-0"></path></svg></g></svg></g><g transform="matrix(1,0,0,1,0,44.95291261514719)"><svg viewBox="0 0 213.1584412271571 14.19358984582145" height="14.19358984582145" width="213.1584412271571"><g transform="matrix(1,0,0,1,0,0)"><svg width="213.1584412271571" viewBox="-0.7 -41.25 837.1599999999999 55.75" height="14.19358984582145" data-palette-color="#ffffff"><path d="M10.55-14.65L6.1-2.2 10.15-1.7Q10.35-0.95 10.15 0.15L10.15 0.15Q7 0 4.85 0L4.85 0Q3.65 0-0.55 0.1L-0.55 0.1Q-0.85-0.8-0.55-1.7L-0.55-1.7 2.75-2.3Q3.55-3.5 4.75-6.75L4.75-6.75 17.65-41.25 19.4-41.25 33.9-2.2 37.95-1.7Q38.15-0.95 37.95 0.15L37.95 0.15Q34.8 0 30.9 0L30.9 0Q28 0 23.8 0.1L23.8 0.1Q23.5-0.8 23.8-1.7L23.8-1.7 27.95-2.3 23.55-14.65 10.55-14.65ZM17.2-33.7L17.2-33.7 17.15-33.7Q16.55-31.35 15.2-27.55L15.2-27.55 11.45-17.15 22.65-17.15 19-27.55Q17.95-30.6 17.2-33.7ZM84.15-13.4L84.15-13.4 84.15-31.5Q84.15-35.45 83.94-37.35L83.94-37.35 79.3-37.95Q79-38.85 79.3-39.75L79.3-39.75Q82.44-39.6 85.4-39.6L85.4-39.6Q88.65-39.6 91.45-39.8L91.45-39.8Q91.65-38.7 91.45-37.95L91.45-37.95 86.9-37.45 86.9 0 84.25 0 62.2-29.85Q60.65-31.9 58.55-35.2L58.55-35.2Q58.8-32.9 58.8-29.65L58.8-29.65 58.8-8.15Q58.8-4.2 59-2.3L59-2.3 63.65-1.7Q63.95-0.8 63.65 0.1L63.65 0.1Q59.34 0 57.55 0L57.55 0Q54.59 0 51.5 0.15L51.5 0.15Q51.3-0.95 51.5-1.7L51.5-1.7 56.05-2.2 56.05-31.65Q56.05-35.6 55.84-37.5L55.84-37.5 51.7-38.1Q51.4-38.95 51.7-39.8L51.7-39.8 61.5-39.8 81.55-12.5Q81.94-11.95 82.42-11.2 82.9-10.45 83.47-9.4 84.05-8.35 84.4-7.8L84.4-7.8Q84.15-10.8 84.15-13.4ZM115.24-14.1L115.24-14.1 99.54-14.1Q99.09-1.35 107.19-1.35L107.19-1.35Q110.64-1.35 114.24-4.4L114.24-4.4Q114.99-3.95 115.39-2.85L115.39-2.85Q111.94 1 106.64 1L106.64 1Q94.44 1 94.44-13.35L94.44-13.35Q94.44-20.15 98.04-23.93 101.64-27.7 106.44-27.7L106.44-27.7Q111.69-27.7 113.99-24.05 116.29-20.4 116.29-14.55L116.29-14.55Q115.79-14.15 115.24-14.1ZM106.34-25.7L106.34-25.7Q103.74-25.7 101.92-23 100.09-20.3 99.69-16.1L99.69-16.1 105.89-16.1Q109.59-16.1 111.19-16.55L111.19-16.55Q111.19-20.65 109.94-23.18 108.69-25.7 106.34-25.7ZM147.34-24.85L143.59-24.3 135.24-13.95 143.94-2.65 148.14-1.85Q148.34-1.05 148.14 0.15L148.14 0.15Q144.99 0 141.49 0L141.49 0Q138.99 0 134.79 0.1L134.79 0.1Q134.49-0.9 134.79-1.85L134.79-1.85 138.44-2.4 132.14-10.65 125.54-2.25 128.94-1.85Q129.14-1.05 128.94 0.15L128.94 0.15Q125.79 0 123.79 0L123.79 0Q122.79 0 118.59 0.1L118.59 0.1Q118.29-0.9 118.59-1.85L118.59-1.85 122.34-2.4 130.59-12.65 121.74-24.25 118.69-24.95Q118.49-25.75 118.69-26.9L118.69-26.9Q121.44-26.7 124.79-26.7L124.79-26.7Q127.69-26.7 130.94-26.85L130.94-26.85Q131.24-25.95 130.94-24.95L130.94-24.95 127.34-24.3 133.84-15.8 140.64-24.45 137.24-24.85Q137.04-25.65 137.24-26.85L137.24-26.85Q139.99-26.65 142.24-26.65L142.24-26.65Q144.09-26.65 147.34-26.8L147.34-26.8Q147.64-25.8 147.34-24.85L147.34-24.85ZM158.14-32.7L158.14-32.7 158.14-25.55 165.19-25.55Q165.29-24.95 165.29-24.65L165.29-24.65Q165.29-24.2 165.19-23.6L165.19-23.6 158.14-22.55 158.14-8.8Q158.14-5.1 158.81-3.58 159.49-2.05 160.94-2.05L160.94-2.05Q162.24-2.05 164.99-3.1L164.99-3.1Q165.49-2.65 165.69-1.4L165.69-1.4Q164.19-0.5 163.41-0.08 162.64 0.35 161.46 0.68 160.29 1 158.99 1L158.99 1Q156.49 1 154.91-0.93 153.34-2.85 153.34-6.8L153.34-6.8 153.34-23.15 149.84-23.6Q149.74-24.1 149.74-24.45L149.74-24.45Q149.74-24.85 149.84-25.55L149.84-25.55Q151.24-25.8 152.26-26.43 153.29-27.05 153.99-28.18 154.69-29.3 155.06-30.18 155.44-31.05 155.99-32.7L155.99-32.7Q156.44-32.85 157.09-32.85L157.09-32.85Q157.69-32.85 158.14-32.7ZM172.04-5.55L172.04-5.55Q173.39-5.55 174.31-4.67 175.24-3.8 175.24-2.5L175.24-2.5Q175.24-1.2 174.31-0.28 173.39 0.65 172.09 0.65L172.09 0.65Q170.79 0.65 169.86-0.28 168.94-1.2 168.94-2.5L168.94-2.5Q168.94-3.8 169.84-4.67 170.74-5.55 172.04-5.55ZM182.93 2.15L182.93 2.15 182.93-19.35Q182.93-22.65 182.78-24.25L182.78-24.25 178.33-24.75Q178.13-25.5 178.33-26.65L178.33-26.65Q182.73-26.95 187.43-27.7L187.43-27.7Q187.88-27.2 187.93-26.7L187.93-26.7Q187.68-25.4 187.68-18.6L187.68-18.6 187.68-0.5Q187.68 3.55 186.96 6.8 186.23 10.05 184.41 12.28 182.58 14.5 179.88 14.5L179.88 14.5Q176.88 14.5 175.61 13.6 174.33 12.7 174.33 10.75L174.33 10.75Q175.53 9.05 177.73 9.05L177.73 9.05Q178.43 9.05 179.18 9.2L179.18 9.2Q179.73 12.75 180.73 12.75L180.73 12.75Q181.93 12.75 182.43 10.35 182.93 7.95 182.93 2.15ZM180.38-36.45L180.38-36.45Q180.28-36.7 180.28-36.98 180.28-37.25 180.28-37.5L180.28-37.5Q180.28-38.85 181.41-39.68 182.53-40.5 184.18-40.5L184.18-40.5Q185.73-40.5 186.71-39.58 187.68-38.65 187.68-37.05L187.68-37.05Q187.68-35.75 186.56-34.95 185.43-34.15 183.68-34.15L183.68-34.15Q182.48-34.15 181.56-34.75 180.63-35.35 180.38-36.45ZM202.73-1.2L202.73-1.2Q205.43-1.2 206.73-2.45 208.03-3.7 208.03-5.35L208.03-5.35Q208.03-6.3 207.73-7.1 207.43-7.9 206.76-8.65 206.08-9.4 204.98-10.13 203.88-10.85 202.23-11.7L202.23-11.7Q200.18-12.75 198.71-13.7 197.23-14.65 196.28-15.7 195.33-16.75 194.86-17.95 194.38-19.15 194.38-20.65L194.38-20.65Q194.38-22.45 195.03-23.78 195.68-25.1 196.86-25.98 198.03-26.85 199.63-27.28 201.23-27.7 203.18-27.7L203.18-27.7Q207.08-27.7 210.78-25.8L210.78-25.8 210.78-19.4 208.43-19.4 207.33-24.8Q205.13-25.85 202.68-25.85L202.68-25.85Q198.58-25.85 198.58-22.5L198.58-22.5Q198.58-20.7 199.93-19.2 201.28-17.7 204.28-16.2L204.28-16.2Q206.33-15.15 207.88-14.2 209.43-13.25 210.46-12.2 211.48-11.15 212.01-9.93 212.53-8.7 212.53-7.15L212.53-7.15Q212.53-5.4 211.78-3.9 211.03-2.4 209.68-1.33 208.33-0.25 206.43 0.38 204.53 1 202.23 1L202.23 1Q197.78 1 193.88-0.9L193.88-0.9 193.88-7.3 196.23-7.3 197.33-2.35Q199.88-1.2 202.73-1.2ZM229.53-39.95L229.53-39.95Q232.08-39.95 236.88-40.15 241.68-40.35 243.23-40.35L243.23-40.35 244.58-40.35Q251.13-40.35 254.33-37.68 257.53-35 257.53-30.65L257.53-30.65Q257.53-24.45 249.43-22.05L249.43-22.05 249.43-21.9Q254.13-21.2 256.85-18.23 259.58-15.25 259.58-11.1L259.58-11.1Q259.58-5.55 255.8-2.45 252.03 0.65 244.73 0.65L244.73 0.65Q242.73 0.65 238.25 0.33 233.78 0 231.13 0L231.13 0Q230.83 0 230.18 0.03 229.53 0.05 229.23 0.05L229.23 0.05Q228.93-0.85 229.23-1.75L229.23-1.75 233.38-2.3Q233.58-4.2 233.58-8.15L233.58-8.15 233.58-37.6 229.53-38.1Q229.33-38.85 229.53-39.95ZM242.93-20.3L242.93-20.3 238.93-20.3 238.93-2.2Q241.48-1.75 242.98-1.65L242.98-1.65Q249.03-1.65 251.33-3.93 253.63-6.2 253.63-11.05L253.63-11.05Q253.63-14.95 250.8-17.63 247.98-20.3 242.93-20.3ZM243.28-38.25L243.28-38.25Q240.78-38.25 239.13-37.9L239.13-37.9Q238.93-36 238.93-31.65L238.93-31.65 238.93-22.8 242.83-22.8Q247.48-22.8 249.6-24.7 251.73-26.6 251.73-30.35L251.73-30.35Q251.73-34.15 249.4-36.2 247.08-38.25 243.28-38.25ZM285.07-14.1L285.07-14.1 269.37-14.1Q268.92-1.35 277.02-1.35L277.02-1.35Q280.47-1.35 284.07-4.4L284.07-4.4Q284.82-3.95 285.22-2.85L285.22-2.85Q281.77 1 276.47 1L276.47 1Q264.27 1 264.27-13.35L264.27-13.35Q264.27-20.15 267.87-23.93 271.47-27.7 276.27-27.7L276.27-27.7Q281.52-27.7 283.82-24.05 286.12-20.4 286.12-14.55L286.12-14.55Q285.62-14.15 285.07-14.1ZM276.17-25.7L276.17-25.7Q273.57-25.7 271.75-23 269.92-20.3 269.52-16.1L269.52-16.1 275.72-16.1Q279.42-16.1 281.02-16.55L281.02-16.55Q281.02-20.65 279.77-23.18 278.52-25.7 276.17-25.7ZM299.37-1.2L299.37-1.2Q302.07-1.2 303.37-2.45 304.67-3.7 304.67-5.35L304.67-5.35Q304.67-6.3 304.37-7.1 304.07-7.9 303.4-8.65 302.72-9.4 301.62-10.13 300.52-10.85 298.87-11.7L298.87-11.7Q296.82-12.75 295.35-13.7 293.87-14.65 292.92-15.7 291.97-16.75 291.5-17.95 291.02-19.15 291.02-20.65L291.02-20.65Q291.02-22.45 291.67-23.78 292.32-25.1 293.5-25.98 294.67-26.85 296.27-27.28 297.87-27.7 299.82-27.7L299.82-27.7Q303.72-27.7 307.42-25.8L307.42-25.8 307.42-19.4 305.07-19.4 303.97-24.8Q301.77-25.85 299.32-25.85L299.32-25.85Q295.22-25.85 295.22-22.5L295.22-22.5Q295.22-20.7 296.57-19.2 297.92-17.7 300.92-16.2L300.92-16.2Q302.97-15.15 304.52-14.2 306.07-13.25 307.1-12.2 308.12-11.15 308.65-9.93 309.17-8.7 309.17-7.15L309.17-7.15Q309.17-5.4 308.42-3.9 307.67-2.4 306.32-1.33 304.97-0.25 303.07 0.38 301.17 1 298.87 1L298.87 1Q294.42 1 290.52-0.9L290.52-0.9 290.52-7.3 292.87-7.3 293.97-2.35Q296.52-1.2 299.37-1.2ZM320.77-32.7L320.77-32.7 320.77-25.55 327.82-25.55Q327.92-24.95 327.92-24.65L327.92-24.65Q327.92-24.2 327.82-23.6L327.82-23.6 320.77-22.55 320.77-8.8Q320.77-5.1 321.44-3.58 322.12-2.05 323.57-2.05L323.57-2.05Q324.87-2.05 327.62-3.1L327.62-3.1Q328.12-2.65 328.32-1.4L328.32-1.4Q326.82-0.5 326.04-0.08 325.27 0.35 324.09 0.68 322.92 1 321.62 1L321.62 1Q319.12 1 317.54-0.93 315.97-2.85 315.97-6.8L315.97-6.8 315.97-23.15 312.47-23.6Q312.37-24.1 312.37-24.45L312.37-24.45Q312.37-24.85 312.47-25.55L312.47-25.55Q313.87-25.8 314.89-26.43 315.92-27.05 316.62-28.18 317.32-29.3 317.69-30.18 318.07-31.05 318.62-32.7L318.62-32.7Q319.07-32.85 319.72-32.85L319.72-32.85Q320.32-32.85 320.77-32.7ZM343.96-39.95L343.96-39.95Q346.01-39.95 350.49-40.15 354.96-40.35 358.61-40.35L358.61-40.35Q366.36-40.35 369.66-37.33 372.96-34.3 372.96-28.9L372.96-28.9Q372.96-24.1 368.69-20.85 364.41-17.6 358.51-17.6L358.51-17.6Q355.46-17.6 353.36-17.9L353.36-17.9 353.36-2.2 357.91-1.7Q358.11-0.95 357.91 0.15L357.91 0.15Q354.76 0 350.81 0L350.81 0Q347.86 0 343.66 0.1L343.66 0.1Q343.36-0.8 343.66-1.7L343.66-1.7 347.81-2.3Q348.01-4.2 348.01-8.15L348.01-8.15 348.01-37.6 343.96-38.1Q343.76-38.85 343.96-39.95ZM353.36-31.65L353.36-31.65 353.36-19.95Q354.91-19.75 357.86-19.75L357.86-19.75Q360.46-19.75 362.34-20.63 364.21-21.5 365.16-22.98 366.11-24.45 366.51-25.95 366.91-27.45 366.91-29.15L366.91-29.15Q366.91-33.5 364.71-35.88 362.51-38.25 357.36-38.25L357.36-38.25Q355.51-38.25 353.66-37.9L353.66-37.9Q353.36-35.05 353.36-31.65ZM385.06-26.7L385.06-26.7 384.96-21.55Q386.21-23.85 388.44-25.78 390.66-27.7 392.66-27.7L392.66-27.7Q394.21-27.7 395.41-27.35L395.41-27.35Q395.81-26.7 395.81-25.65L395.81-25.65Q395.81-24 395.11-22.35L395.11-22.35Q393.31-22.85 391.66-22.85L391.66-22.85Q387.56-22.85 384.91-18.85L384.91-18.85 384.81-10.1 384.81-2.55 390.36-1.8Q390.56-1 390.36 0.2L390.36 0.2Q387.21 0.05 383.16 0.05L383.16 0.05Q380.11 0.05 375.91 0.15L375.91 0.15Q375.61-0.8 375.91-1.8L375.91-1.8 379.86-2.35Q380.06-5.1 380.06-8.7L380.06-8.7 380.06-22.4Q380.06-23.4 379.91-24.25L379.91-24.25 375.96-24.75Q375.76-25.5 375.96-26.65L375.96-26.65Q379.41-26.9 384.56-27.7L384.56-27.7Q385.01-27.2 385.06-26.7ZM402.91-6.65L402.91-6.65Q402.91-4.05 403.86-2.98 404.81-1.9 406.86-1.9L406.86-1.9Q408.36-1.9 410.18-2.83 412.01-3.75 413.56-5.5L413.56-5.5 413.56-13.3Q408.41-13 405.66-11.48 402.91-9.95 402.91-6.65ZM413.56-15.1L413.56-15.1 413.56-17.65Q413.56-21.9 412.58-23.83 411.61-25.75 409.36-25.75L409.36-25.75Q407.06-25.75 405.66-24.28 404.26-22.8 403.76-19.25L403.76-19.25Q402.16-18.9 401.41-18.9L401.41-18.9Q399.46-18.9 399.11-20.3L399.11-20.3Q399.11-23.7 402.06-25.7 405.01-27.7 409.41-27.7L409.41-27.7Q414.26-27.7 416.28-25.73 418.31-23.75 418.31-18.65L418.31-18.65 418.31-4.55Q418.31-3.3 418.46-2.4L418.46-2.4 422.41-1.9Q422.61-1.15 422.41 0L422.41 0Q418.86 0.15 414.86 0.7L414.86 0.7Q414.46 0.3 414.36-0.3L414.36-0.3 414.11-3.75Q409.96 1 404.86 1L404.86 1Q401.71 1 399.93-0.8 398.16-2.6 398.16-5.65L398.16-5.65Q398.16-10.25 402.33-12.6 406.51-14.95 413.56-15.1ZM446.76-20.3L446.76-20.3Q445.71-19.2 441.81-19.25L441.81-19.25Q441.01-25.55 437.26-25.55L437.26-25.55Q434.31-25.55 432.26-22.15 430.21-18.75 430.21-13.2L430.21-13.2Q430.21-7.5 432.01-4.42 433.81-1.35 437.41-1.35L437.41-1.35Q441.21-1.35 444.86-4.45L444.86-4.45Q445.61-4 446.01-2.9L446.01-2.9Q442.36 1 436.86 1L436.86 1Q431.61 1 428.26-2.63 424.91-6.25 424.91-13.3L424.91-13.3Q424.91-20.05 428.63-23.88 432.36-27.7 437.16-27.7L437.16-27.7Q440.96-27.7 443.86-25.8 446.76-23.9 446.76-20.3ZM457.95-32.7L457.95-32.7 457.95-25.55 465-25.55Q465.1-24.95 465.1-24.65L465.1-24.65Q465.1-24.2 465-23.6L465-23.6 457.95-22.55 457.95-8.8Q457.95-5.1 458.63-3.58 459.3-2.05 460.75-2.05L460.75-2.05Q462.05-2.05 464.8-3.1L464.8-3.1Q465.3-2.65 465.5-1.4L465.5-1.4Q464-0.5 463.23-0.08 462.45 0.35 461.28 0.68 460.1 1 458.8 1L458.8 1Q456.3 1 454.73-0.93 453.15-2.85 453.15-6.8L453.15-6.8 453.15-23.15 449.65-23.6Q449.55-24.1 449.55-24.45L449.55-24.45Q449.55-24.85 449.65-25.55L449.65-25.55Q451.05-25.8 452.08-26.43 453.1-27.05 453.8-28.18 454.5-29.3 454.88-30.18 455.25-31.05 455.8-32.7L455.8-32.7Q456.25-32.85 456.9-32.85L456.9-32.85Q457.5-32.85 457.95-32.7ZM476.65-18.6L476.65-18.6 476.65-2.55 480.7-1.8Q480.75-1.55 480.78-1.35 480.8-1.15 480.8-0.9L480.8-0.9Q480.8-0.65 480.78-0.38 480.75-0.1 480.7 0.2L480.7 0.2Q477.55 0.05 474.25 0.05L474.25 0.05Q473.1 0.05 471.48 0.08 469.85 0.1 467.75 0.15L467.75 0.15Q467.6-0.3 467.6-0.8L467.6-0.8Q467.6-1.25 467.75-1.8L467.75-1.8 471.7-2.35Q471.8-3.75 471.85-5.33 471.9-6.9 471.9-8.7L471.9-8.7 471.9-19.35Q471.9-22.65 471.75-24.25L471.75-24.25 467.8-24.75Q467.7-25 467.7-25.6L467.7-25.6Q467.7-25.85 467.7-26.1 467.7-26.35 467.8-26.65L467.8-26.65Q471.2-26.85 476.4-27.7L476.4-27.7Q476.85-27.2 476.9-26.7L476.9-26.7Q476.65-25.3 476.65-18.6ZM469.35-36.45L469.35-36.45Q469.25-36.7 469.25-36.98 469.25-37.25 469.25-37.5L469.25-37.5Q469.25-38.85 470.38-39.68 471.5-40.5 473.15-40.5L473.15-40.5Q474.7-40.5 475.68-39.58 476.65-38.65 476.65-37.05L476.65-37.05Q476.65-35.75 475.53-34.95 474.4-34.15 472.65-34.15L472.65-34.15Q471.45-34.15 470.53-34.75 469.6-35.35 469.35-36.45ZM505.65-20.3L505.65-20.3Q504.6-19.2 500.7-19.25L500.7-19.25Q499.9-25.55 496.15-25.55L496.15-25.55Q493.2-25.55 491.15-22.15 489.1-18.75 489.1-13.2L489.1-13.2Q489.1-7.5 490.9-4.42 492.7-1.35 496.3-1.35L496.3-1.35Q500.1-1.35 503.75-4.45L503.75-4.45Q504.5-4 504.9-2.9L504.9-2.9Q501.25 1 495.75 1L495.75 1Q490.5 1 487.15-2.63 483.8-6.25 483.8-13.3L483.8-13.3Q483.8-20.05 487.52-23.88 491.25-27.7 496.05-27.7L496.05-27.7Q499.85-27.7 502.75-25.8 505.65-23.9 505.65-20.3ZM530.2-14.1L530.2-14.1 514.5-14.1Q514.05-1.35 522.15-1.35L522.15-1.35Q525.6-1.35 529.2-4.4L529.2-4.4Q529.95-3.95 530.35-2.85L530.35-2.85Q526.9 1 521.6 1L521.6 1Q509.4 1 509.4-13.35L509.4-13.35Q509.4-20.15 513-23.93 516.6-27.7 521.4-27.7L521.4-27.7Q526.65-27.7 528.95-24.05 531.25-20.4 531.25-14.55L531.25-14.55Q530.75-14.15 530.2-14.1ZM521.3-25.7L521.3-25.7Q518.7-25.7 516.87-23 515.05-20.3 514.65-16.1L514.65-16.1 520.85-16.1Q524.55-16.1 526.15-16.55L526.15-16.55Q526.15-20.65 524.9-23.18 523.65-25.7 521.3-25.7ZM544.49-1.2L544.49-1.2Q547.19-1.2 548.49-2.45 549.79-3.7 549.79-5.35L549.79-5.35Q549.79-6.3 549.49-7.1 549.19-7.9 548.52-8.65 547.84-9.4 546.74-10.13 545.64-10.85 543.99-11.7L543.99-11.7Q541.94-12.75 540.47-13.7 538.99-14.65 538.04-15.7 537.09-16.75 536.62-17.95 536.14-19.15 536.14-20.65L536.14-20.65Q536.14-22.45 536.79-23.78 537.44-25.1 538.62-25.98 539.79-26.85 541.39-27.28 542.99-27.7 544.94-27.7L544.94-27.7Q548.84-27.7 552.54-25.8L552.54-25.8 552.54-19.4 550.19-19.4 549.09-24.8Q546.89-25.85 544.44-25.85L544.44-25.85Q540.34-25.85 540.34-22.5L540.34-22.5Q540.34-20.7 541.69-19.2 543.04-17.7 546.04-16.2L546.04-16.2Q548.09-15.15 549.64-14.2 551.19-13.25 552.22-12.2 553.24-11.15 553.77-9.93 554.29-8.7 554.29-7.15L554.29-7.15Q554.29-5.4 553.54-3.9 552.79-2.4 551.44-1.33 550.09-0.25 548.19 0.38 546.29 1 543.99 1L543.99 1Q539.54 1 535.64-0.9L535.64-0.9 535.64-7.3 537.99-7.3 539.09-2.35Q541.64-1.2 544.49-1.2ZM601.34 0L578.14 0 570.99 0.15Q570.69-0.75 570.99-1.65L570.99-1.65 575.14-2.2Q575.34-4.75 575.34-8.1L575.34-8.1 575.34-37.6 571.29-38.1Q571.09-38.85 571.29-39.95L571.29-39.95Q574.04-39.75 578.14-39.75L578.14-39.75Q581.79-39.75 585.04-39.9L585.04-39.9Q585.34-39 585.04-38.1L585.04-38.1 580.89-37.5Q580.69-35.6 580.69-31.65L580.69-31.65 580.69-2.55 597.19-2.55 599.54-11.6Q600.29-11.8 601.39-11.6L601.39-11.6 601.34 0ZM609.38-6.65L609.38-6.65Q609.38-4.05 610.34-2.98 611.28-1.9 613.34-1.9L613.34-1.9Q614.84-1.9 616.66-2.83 618.49-3.75 620.03-5.5L620.03-5.5 620.03-13.3Q614.88-13 612.13-11.48 609.38-9.95 609.38-6.65ZM620.03-15.1L620.03-15.1 620.03-17.65Q620.03-21.9 619.06-23.83 618.09-25.75 615.84-25.75L615.84-25.75Q613.53-25.75 612.13-24.28 610.74-22.8 610.24-19.25L610.24-19.25Q608.63-18.9 607.88-18.9L607.88-18.9Q605.93-18.9 605.59-20.3L605.59-20.3Q605.59-23.7 608.53-25.7 611.49-27.7 615.88-27.7L615.88-27.7Q620.74-27.7 622.76-25.73 624.78-23.75 624.78-18.65L624.78-18.65 624.78-4.55Q624.78-3.3 624.93-2.4L624.93-2.4 628.88-1.9Q629.09-1.15 628.88 0L628.88 0Q625.34 0.15 621.34 0.7L621.34 0.7Q620.93 0.3 620.84-0.3L620.84-0.3 620.59-3.75Q616.43 1 611.34 1L611.34 1Q608.18 1 606.41-0.8 604.63-2.6 604.63-5.65L604.63-5.65Q604.63-10.25 608.81-12.6 612.99-14.95 620.03-15.1ZM637.93-31.7L637.93-23.55Q642.08-27.7 646.98-27.7L646.98-27.7Q651.83-27.7 654.56-24.05 657.28-20.4 657.28-14.2L657.28-14.2Q657.28-7.15 653.48-3.08 649.68 1 644.03 1L644.03 1Q639.13 1 636.33-2.5L636.33-2.5 635.28 0.9Q634.33 1.05 633.68 0.9L633.68 0.9 633.18-4.6 633.18-37.35 629.08-37.85Q628.88-38.6 629.08-39.75L629.08-39.75Q632.53-40 637.68-40.8L637.68-40.8Q638.13-40.3 638.18-39.8L638.18-39.8Q637.93-38.5 637.93-31.7L637.93-31.7ZM645.13-1.75L645.13-1.75Q648.23-1.75 650.26-4.63 652.28-7.5 652.28-12.75L652.28-12.75Q652.28-13.8 652.23-14.35L652.23-14.35Q652.23-19.3 650.26-22 648.28-24.7 645.28-24.7L645.28-24.7Q643.53-24.7 641.48-23.58 639.43-22.45 637.93-20.5L637.93-20.5 637.93-5.2Q639.63-3.25 641.18-2.5 642.73-1.75 645.13-1.75ZM661.63-13.3L661.63-13.3Q661.63-16.3 662.5-18.93 663.38-21.55 665.03-23.5 666.68-25.45 669-26.58 671.33-27.7 674.23-27.7L674.23-27.7Q677.08-27.7 679.43-26.58 681.78-25.45 683.45-23.5 685.13-21.55 686.03-18.93 686.93-16.3 686.93-13.3L686.93-13.3Q686.93-10.2 686-7.6 685.08-5 683.4-3.08 681.73-1.15 679.38-0.08 677.03 1 674.23 1L674.23 1Q671.28 1 668.95-0.05 666.63-1.1 665-3 663.38-4.9 662.5-7.53 661.63-10.15 661.63-13.3ZM668.93-22.5L668.93-22.5Q666.78-19.45 666.78-13.3L666.78-13.3Q666.78-10.25 667.35-7.95 667.93-5.65 668.93-4.13 669.93-2.6 671.28-1.85 672.63-1.1 674.23-1.1L674.23-1.1Q675.78-1.1 677.18-1.85 678.58-2.6 679.58-4.13 680.58-5.65 681.18-7.95 681.78-10.25 681.78-13.3L681.78-13.3Q681.78-16.35 681.18-18.68 680.58-21 679.55-22.53 678.53-24.05 677.15-24.83 675.78-25.6 674.23-25.6L674.23-25.6Q671.13-25.6 668.93-22.5ZM699.73-26.7L699.73-26.7 699.63-21.55Q700.88-23.85 703.1-25.78 705.33-27.7 707.33-27.7L707.33-27.7Q708.88-27.7 710.08-27.35L710.08-27.35Q710.48-26.7 710.48-25.65L710.48-25.65Q710.48-24 709.78-22.35L709.78-22.35Q707.98-22.85 706.33-22.85L706.33-22.85Q702.23-22.85 699.58-18.85L699.58-18.85 699.48-10.1 699.48-2.55 705.03-1.8Q705.23-1 705.03 0.2L705.03 0.2Q701.88 0.05 697.83 0.05L697.83 0.05Q694.78 0.05 690.58 0.15L690.58 0.15Q690.28-0.8 690.58-1.8L690.58-1.8 694.53-2.35Q694.73-5.1 694.73-8.7L694.73-8.7 694.73-22.4Q694.73-23.4 694.58-24.25L694.58-24.25 690.63-24.75Q690.43-25.5 690.63-26.65L690.63-26.65Q694.08-26.9 699.23-27.7L699.23-27.7Q699.68-27.2 699.73-26.7ZM717.57-6.65L717.57-6.65Q717.57-4.05 718.52-2.98 719.47-1.9 721.52-1.9L721.52-1.9Q723.02-1.9 724.85-2.83 726.67-3.75 728.22-5.5L728.22-5.5 728.22-13.3Q723.07-13 720.32-11.48 717.57-9.95 717.57-6.65ZM728.22-15.1L728.22-15.1 728.22-17.65Q728.22-21.9 727.25-23.83 726.27-25.75 724.02-25.75L724.02-25.75Q721.72-25.75 720.32-24.28 718.92-22.8 718.42-19.25L718.42-19.25Q716.82-18.9 716.07-18.9L716.07-18.9Q714.12-18.9 713.77-20.3L713.77-20.3Q713.77-23.7 716.72-25.7 719.67-27.7 724.07-27.7L724.07-27.7Q728.92-27.7 730.95-25.73 732.97-23.75 732.97-18.65L732.97-18.65 732.97-4.55Q732.97-3.3 733.12-2.4L733.12-2.4 737.07-1.9Q737.27-1.15 737.07 0L737.07 0Q733.52 0.15 729.52 0.7L729.52 0.7Q729.12 0.3 729.02-0.3L729.02-0.3 728.77-3.75Q724.62 1 719.52 1L719.52 1Q716.37 1 714.6-0.8 712.82-2.6 712.82-5.65L712.82-5.65Q712.82-10.25 717-12.6 721.17-14.95 728.22-15.1ZM747.02-32.7L747.02-32.7 747.02-25.55 754.07-25.55Q754.17-24.95 754.17-24.65L754.17-24.65Q754.17-24.2 754.07-23.6L754.07-23.6 747.02-22.55 747.02-8.8Q747.02-5.1 747.7-3.58 748.37-2.05 749.82-2.05L749.82-2.05Q751.12-2.05 753.87-3.1L753.87-3.1Q754.37-2.65 754.57-1.4L754.57-1.4Q753.07-0.5 752.3-0.08 751.52 0.35 750.35 0.68 749.17 1 747.87 1L747.87 1Q745.37 1 743.8-0.93 742.22-2.85 742.22-6.8L742.22-6.8 742.22-23.15 738.72-23.6Q738.62-24.1 738.62-24.45L738.62-24.45Q738.62-24.85 738.72-25.55L738.72-25.55Q740.12-25.8 741.15-26.43 742.17-27.05 742.87-28.18 743.57-29.3 743.95-30.18 744.32-31.05 744.87-32.7L744.87-32.7Q745.32-32.85 745.97-32.85L745.97-32.85Q746.57-32.85 747.02-32.7ZM757.47-13.3L757.47-13.3Q757.47-16.3 758.34-18.93 759.22-21.55 760.87-23.5 762.52-25.45 764.84-26.58 767.17-27.7 770.07-27.7L770.07-27.7Q772.92-27.7 775.27-26.58 777.62-25.45 779.29-23.5 780.97-21.55 781.87-18.93 782.77-16.3 782.77-13.3L782.77-13.3Q782.77-10.2 781.84-7.6 780.92-5 779.24-3.08 777.57-1.15 775.22-0.08 772.87 1 770.07 1L770.07 1Q767.12 1 764.79-0.05 762.47-1.1 760.84-3 759.22-4.9 758.34-7.53 757.47-10.15 757.47-13.3ZM764.77-22.5L764.77-22.5Q762.62-19.45 762.62-13.3L762.62-13.3Q762.62-10.25 763.19-7.95 763.77-5.65 764.77-4.13 765.77-2.6 767.12-1.85 768.47-1.1 770.07-1.1L770.07-1.1Q771.62-1.1 773.02-1.85 774.42-2.6 775.42-4.13 776.42-5.65 777.02-7.95 777.62-10.25 777.62-13.3L777.62-13.3Q777.62-16.35 777.02-18.68 776.42-21 775.39-22.53 774.37-24.05 772.99-24.83 771.62-25.6 770.07-25.6L770.07-25.6Q766.97-25.6 764.77-22.5ZM795.57-26.7L795.57-26.7 795.47-21.55Q796.72-23.85 798.94-25.78 801.17-27.7 803.17-27.7L803.17-27.7Q804.72-27.7 805.92-27.35L805.92-27.35Q806.32-26.7 806.32-25.65L806.32-25.65Q806.32-24 805.62-22.35L805.62-22.35Q803.82-22.85 802.17-22.85L802.17-22.85Q798.07-22.85 795.42-18.85L795.42-18.85 795.32-10.1 795.32-2.55 800.87-1.8Q801.07-1 800.87 0.2L800.87 0.2Q797.72 0.05 793.67 0.05L793.67 0.05Q790.62 0.05 786.42 0.15L786.42 0.15Q786.12-0.8 786.42-1.8L786.42-1.8 790.37-2.35Q790.57-5.1 790.57-8.7L790.57-8.7 790.57-22.4Q790.57-23.4 790.42-24.25L790.42-24.25 786.47-24.75Q786.27-25.5 786.47-26.65L786.47-26.65Q789.92-26.9 795.07-27.7L795.07-27.7Q795.52-27.2 795.57-26.7ZM817.01 7.4L817.01 7.4 820.21-0.15 810.51-24.05 806.61-24.85Q806.36-25.85 806.61-26.85L806.61-26.85Q809.36-26.65 813.31-26.65L813.31-26.65Q816.86-26.65 820.06-26.8L820.06-26.8Q820.36-25.8 820.06-24.85L820.06-24.85 815.76-24.15 820.51-12.9Q821.51-10.45 822.61-6.05L822.61-6.05 822.71-6.05Q823.56-9.05 825.06-12.65L825.06-12.65 829.41-24.3 825.51-24.85Q825.31-25.65 825.51-26.85L825.51-26.85Q828.26-26.65 830.86-26.65L830.86-26.65Q833.06-26.65 836.31-26.8L836.31-26.8Q836.61-25.8 836.31-24.85L836.31-24.85 832.36-24.3 819.16 8Q818.11 10.5 816.81 11.75 815.51 13 813.36 13L813.36 13Q811.66 13 810.74 12.58 809.81 12.15 808.86 10.95L808.86 10.95Q809.16 8.2 811.71 6.55L811.71 6.55Q813.76 8.85 815.21 8.85L815.21 8.85Q816.46 8.85 817.01 7.4Z" opacity="1" transform="matrix(1,0,0,1,0,0)" fill="#000000" class="slogan-text-1" data-fill-palette-color="quaternary" id="text-1"></path></svg></g></svg></g></svg></g></svg></g><g transform="matrix(1,0,0,1,62.812846926079224,0)"><svg viewBox="0 0 87.53274737499866 81.74046640105867" height="81.74046640105867" width="87.53274737499866"><g><svg xmlns="http://www.w3.org/2000/svg" xmlns:xlink="http://www.w3.org/1999/xlink" version="1.1" x="0" y="0" viewBox="0.5614369246073976 2.6412711345495907 62.87750511782248 58.716728865450406" enable-background="new 0 0 64 64" xml:space="preserve" height="81.74046640105867" width="87.53274737499866" class="icon-icon-0" data-fill-palette-color="quaternary" id="icon-0"><g fill="#ffffff" data-fill-palette-color="quaternary"><path fill="#000000" d="M61.984 47.922A89 89 0 0 0 60.006 44.921C59.687 44.45 59.369 43.979 59.054 43.507L54.374 36.464C50.802 31.088 47.115 25.539 43.478 20.084 43.175 19.628 43.058 19.248 43.064 18.728 43.078 17.203 43.087 14.925 43.088 11.958A1.48 1.48 0 0 1 44.558 10.484C45.957 10.48 46.433 10.467 46.489 10.466A1.915 1.915 0 0 0 48.34 8.498C48.309 7.459 47.471 6.645 46.371 6.645H46.37C46.315 6.646 45.845 6.658 44.549 6.661A5.306 5.306 0 0 0 39.266 11.956 859 859 0 0 1 39.242 18.689C39.228 19.986 39.563 21.103 40.297 22.204 43.932 27.656 47.619 33.204 51.189 38.578L55.87 45.622C56.192 46.105 56.517 46.585 56.875 47.113A87 87 0 0 1 58.738 49.942C59.963 51.907 60.157 55.672 57.692 57.339A1.04 1.04 0 0 1 57.237 57.505C55.755 57.529 54.255 57.535 52.77 57.535L48.409 57.529 32.071 57.53 15.591 57.528 11.232 57.534C9.747 57.534 8.245 57.528 6.763 57.504A1 1 0 0 1 6.306 57.337C3.842 55.671 4.037 51.906 5.262 49.94 5.862 48.975 6.521 48.004 7.159 47.062 7.484 46.583 7.809 46.104 8.129 45.622L12.64 38.835C16.263 33.382 20.01 27.744 23.703 22.204 24.437 21.103 24.772 19.986 24.759 18.691A812 812 0 0 1 24.735 11.938 5.305 5.305 0 0 0 19.435 6.643H17.326A1.913 1.913 0 0 0 15.415 8.555C15.415 9.609 16.272 10.466 17.326 10.466H19.435C20.249 10.466 20.911 11.127 20.911 11.94 20.913 14.928 20.921 17.212 20.936 18.729 20.942 19.248 20.826 19.627 20.522 20.083 17.107 25.206 13.646 30.413 10.279 35.479L4.945 43.507C4.631 43.979 4.312 44.45 3.994 44.921A91 91 0 0 0 2.017 47.92C0.921 49.681 0.395 52.05 0.608 54.258 0.864 56.909 2.126 59.126 4.163 60.504 4.902 61.005 5.852 61.313 6.703 61.328 8.214 61.351 9.739 61.358 11.245 61.358L15.591 61.352 31.929 61.353 48.409 61.352 52.688 61.358C54.216 61.358 55.764 61.352 57.299 61.328 58.148 61.313 59.097 61.005 59.835 60.505 61.872 59.127 63.136 56.909 63.392 54.258 63.606 52.05 63.08 49.681 61.984 47.922" data-fill-palette-color="quaternary"></path><path fill="#000000" d="M32.745 14.534C32.542 16.063 31.065 17.177 29.548 16.945 28.063 16.718 26.974 15.32 27.128 13.839 27.283 12.349 28.796 11.165 30.299 11.356 31.833 11.552 32.948 13.001 32.745 14.534" data-fill-palette-color="quaternary"></path><path fill="#000000" d="M35.873 5.435C35.696 6.77 34.406 7.743 33.081 7.541 31.784 7.343 30.833 6.122 30.968 4.828 31.104 3.527 32.425 2.492 33.738 2.659 35.077 2.83 36.051 4.096 35.873 5.435" data-fill-palette-color="quaternary"></path><path fill="#000000" d="M37.91 22.589C37.705 24.132 36.214 25.257 34.683 25.023 33.184 24.794 32.084 23.383 32.24 21.888 32.397 20.384 33.924 19.188 35.441 19.382 36.99 19.578 38.115 21.041 37.91 22.589" data-fill-palette-color="quaternary"></path><path fill="#000000" d="M8.449 51.923C8.201 52.321 8.054 53.155 8.189 53.77 9.087 53.779 10.076 53.783 11.252 53.783L15.592 53.777 32.072 53.779 48.411 53.777 52.751 53.783C53.928 53.783 54.918 53.779 55.814 53.77 55.949 53.157 55.802 52.324 55.556 51.928A82 82 0 0 0 53.764 49.21C53.405 48.68 53.075 48.192 52.747 47.7L41.946 31.452C41.765 31.442 41.59 31.428 41.433 31.415L41.234 31.399C40.483 31.345 39.734 31.212 39.009 31.003A10.6 10.6 0 0 1 35.085 28.915C34.73 28.612 34.504 28.559 34.16 28.822 33.968 28.968 33.79 29.126 33.611 29.284 33.387 29.482 33.161 29.679 32.924 29.861 32.669 30.055 32.394 30.232 32.102 30.388 30.99 30.976 29.761 31.248 28.224 31.248 27.421 31.248 26.628 31.176 25.86 31.105 24.492 30.98 23.205 30.906 22.269 31.125L11.249 47.71C10.925 48.197 10.595 48.685 10.263 49.174L10.197 49.271A79 79 0 0 0 8.449 51.923" data-fill-palette-color="quaternary"></path></g></svg></g></svg></g><g></g></svg></g></svg></g></svg></g></svg></g><defs></defs></svg><rect width="342.85155851775386" height="342.85155851775386" fill="none" stroke="none" visibility="hidden"></rect></g></svg></g></svg>